<svg width="700" height="450" viewBox="0 0 700 450" fill="none" xmlns="http://www.w3.org/2000/svg">
<rect width="700" height="450" rx="50" fill="#DEF9FF"/>
<rect x="40" y="30" width="441" height="53" rx="3" fill="#F093FF" fill-opacity="0.5"/>
<rect y="133" width="700" height="5" fill="#494949"/>
<rect x="40" y="99" width="304" height="18" rx="3" fill="#8E8E8E" fill-opacity="0.65"/>
<rect x="272" y="213" width="144" height="18" rx="3" fill="#8E8E8E" fill-opacity="0.65"/>
<rect x="272" y="387" width="125" height="18" rx="3" fill="#8E8E8E" fill-opacity="0.65"/>
<rect x="272" y="359" width="154" height="18" rx="3" fill="#8E8E8E" fill-opacity="0.65"/>
<rect x="272" y="331" width="140" height="18" rx="3" fill="#8E8E8E" fill-opacity="0.65"/>
<rect x="426" y="213" width="218" height="18" rx="3" fill="#8E8E8E" fill-opacity="0.65"/>
<rect x="354" y="99" width="145" height="18" rx="3" fill="#8E8E8E" fill-opacity="0.65"/>
<rect x="40" y="173" width="184" height="232" rx="5" fill="#C4C4C4" fill-opacity="0.5"/>
<rect x="586" y="36" width="72.96" height="53.2" fill="#FF0000" fill-opacity="0.5"/>
<path d="M658.96 89.1802C658.96 101.882 642.627 112.18 622.48 112.18C602.333 112.18 586 101.882 586 89.1802C608.5 89.1806 602.333 89.1797 622.48 89.1797C642.627 89.1797 637.5 89.1797 658.96 89.1802Z" fill="#FF0000" fill-opacity="0.5"/>
<rect x="528" y="340" width="116" height="65" rx="5" fill="white"/>
<rect x="547" y="352" width="79" height="42" rx="5" fill="#EEEEEE"/>
</svg>
