<svg width="820" height="570" viewBox="0 0 820 570" fill="none" xmlns="http://www.w3.org/2000/svg">
<rect width="700" height="450" rx="50" fill="#FADEFF"/>
<rect x="40" y="30" width="441" height="53" rx="3" fill="#F093FF" fill-opacity="0.5"/>
<rect y="133" width="700" height="5" fill="#494949"/>
<rect x="40" y="99" width="304" height="18" rx="3" fill="#8E8E8E" fill-opacity="0.65"/>
<rect x="272" y="213" width="144" height="18" rx="3" fill="#8E8E8E" fill-opacity="0.65"/>
<rect x="272" y="387" width="125" height="18" rx="3" fill="#8E8E8E" fill-opacity="0.65"/>
<rect x="272" y="359" width="154" height="18" rx="3" fill="#8E8E8E" fill-opacity="0.65"/>
<rect x="272" y="331" width="140" height="18" rx="3" fill="#8E8E8E" fill-opacity="0.65"/>
<rect x="426" y="213" width="218" height="18" rx="3" fill="#8E8E8E" fill-opacity="0.65"/>
<rect x="354" y="99" width="145" height="18" rx="3" fill="#8E8E8E" fill-opacity="0.65"/>
<rect x="40" y="173" width="184" height="232" rx="5" fill="#C4C4C4" fill-opacity="0.5"/>
<rect x="586" y="36" width="72.96" height="53.2" fill="#FF0000" fill-opacity="0.5"/>
<path d="M658.96 89.1802C658.96 101.882 642.627 112.18 622.48 112.18C602.333 112.18 586 101.882 586 89.1802C608.5 89.1806 602.333 89.1797 622.48 89.1797C642.627 89.1797 637.5 89.1797 658.96 89.1802Z" fill="#FF0000" fill-opacity="0.5"/>
<rect x="528" y="340" width="116" height="65" rx="5" fill="white"/>
<rect x="547" y="352" width="79" height="42" rx="5" fill="#EEEEEE"/>
<rect x="60" y="60" width="700" height="450" rx="50" fill="#BFFFC6"/>
<rect x="100" y="90" width="441" height="53" rx="3" fill="#F093FF" fill-opacity="0.5"/>
<rect x="60" y="193" width="700" height="5" fill="#494949"/>
<rect x="100" y="159" width="304" height="18" rx="3" fill="#8E8E8E" fill-opacity="0.65"/>
<rect x="332" y="273" width="144" height="18" rx="3" fill="#8E8E8E" fill-opacity="0.65"/>
<rect x="332" y="447" width="125" height="18" rx="3" fill="#8E8E8E" fill-opacity="0.65"/>
<rect x="332" y="419" width="154" height="18" rx="3" fill="#8E8E8E" fill-opacity="0.65"/>
<rect x="332" y="391" width="140" height="18" rx="3" fill="#8E8E8E" fill-opacity="0.65"/>
<rect x="486" y="273" width="218" height="18" rx="3" fill="#8E8E8E" fill-opacity="0.65"/>
<rect x="414" y="159" width="145" height="18" rx="3" fill="#8E8E8E" fill-opacity="0.65"/>
<rect x="100" y="233" width="184" height="232" rx="5" fill="#C4C4C4" fill-opacity="0.5"/>
<rect x="646" y="96" width="72.96" height="53.2" fill="#FF0000" fill-opacity="0.5"/>
<path d="M718.96 149.18C718.96 161.882 702.627 172.18 682.48 172.18C662.333 172.18 646 161.882 646 149.18C668.5 149.181 662.333 149.18 682.48 149.18C702.627 149.18 697.5 149.18 718.96 149.18Z" fill="#FF0000" fill-opacity="0.5"/>
<rect x="588" y="400" width="116" height="65" rx="5" fill="white"/>
<rect x="607" y="412" width="79" height="42" rx="5" fill="#EEEEEE"/>
<rect x="120" y="120" width="700" height="450" rx="50" fill="#DEF9FF"/>
<rect x="160" y="150" width="441" height="53" rx="3" fill="#F093FF" fill-opacity="0.5"/>
<rect x="120" y="253" width="700" height="5" fill="#494949"/>
<rect x="160" y="219" width="304" height="18" rx="3" fill="#8E8E8E" fill-opacity="0.65"/>
<rect x="392" y="333" width="144" height="18" rx="3" fill="#8E8E8E" fill-opacity="0.65"/>
<rect x="392" y="507" width="125" height="18" rx="3" fill="#8E8E8E" fill-opacity="0.65"/>
<rect x="392" y="479" width="154" height="18" rx="3" fill="#8E8E8E" fill-opacity="0.65"/>
<rect x="392" y="451" width="140" height="18" rx="3" fill="#8E8E8E" fill-opacity="0.65"/>
<rect x="546" y="333" width="218" height="18" rx="3" fill="#8E8E8E" fill-opacity="0.65"/>
<rect x="474" y="219" width="145" height="18" rx="3" fill="#8E8E8E" fill-opacity="0.65"/>
<rect x="160" y="293" width="184" height="232" rx="5" fill="#C4C4C4" fill-opacity="0.5"/>
<rect x="706" y="156" width="72.96" height="53.2" fill="#FF0000" fill-opacity="0.5"/>
<path d="M778.96 209.18C778.96 221.882 762.627 232.18 742.48 232.18C722.333 232.18 706 221.882 706 209.18C728.5 209.181 722.333 209.18 742.48 209.18C762.627 209.18 757.5 209.18 778.96 209.18Z" fill="#FF0000" fill-opacity="0.5"/>
<rect x="648" y="460" width="116" height="65" rx="5" fill="white"/>
<rect x="667" y="472" width="79" height="42" rx="5" fill="#EEEEEE"/>
</svg>
